<?xml version="1.0" standalone="no"?>
<!DOCTYPE svg PUBLIC "-//W3C//DTD SVG 20010904//EN"
 "http://www.w3.org/TR/2001/REC-SVG-20010904/DTD/svg10.dtd">
<svg version="1.0" xmlns="http://www.w3.org/2000/svg"
 width="16.000000pt" height="16.000000pt" viewBox="0 0 16.000000 16.000000"
 preserveAspectRatio="xMidYMid meet">
<metadata>
Created by potrace 1.11, written by Peter Selinger 2001-2013
</metadata>
<g transform="translate(0.000000,16.000000) scale(0.002667,-0.002667)"
fill="#000000" stroke="none">
<path d="M0 3000 l0 -3000 3000 0 3000 0 0 3000 0 3000 -3000 0 -3000 0 0
-3000z m2003 1385 c418 -77 707 -281 862 -606 52 -111 91 -241 109 -359 l12
-85 -405 -3 c-223 -1 -412 0 -418 3 -7 2 -13 15 -13 29 0 46 -40 154 -80 214
-67 101 -183 163 -327 177 -352 35 -552 -280 -530 -835 12 -292 80 -467 219
-560 88 -58 151 -75 288 -74 96 0 125 4 172 23 122 48 218 175 256 337 l19 79
417 3 416 2 0 -30 c0 -98 -64 -309 -136 -450 -187 -368 -556 -594 -1009 -618
-387 -22 -725 58 -980 231 -86 58 -235 206 -293 290 -98 142 -172 320 -214
510 -20 90 -22 131 -22 352 0 221 2 262 22 352 121 553 498 926 1036 1024 127
23 460 20 599 -6z m2660 0 c418 -77 707 -281 862 -606 52 -111 91 -241 109
-359 l12 -85 -405 -3 c-223 -1 -412 0 -418 3 -7 2 -13 15 -13 29 0 46 -40 154
-80 214 -67 101 -183 163 -327 177 -352 35 -552 -280 -530 -835 12 -292 80
-467 219 -560 88 -58 151 -75 288 -74 96 0 125 4 172 23 122 48 218 175 256
337 l19 79 417 3 416 2 0 -30 c0 -98 -64 -309 -136 -450 -187 -368 -556 -594
-1009 -618 -387 -22 -725 58 -980 231 -86 58 -235 206 -293 290 -98 142 -172
320 -214 510 -20 90 -22 131 -22 352 0 221 2 262 22 352 121 553 498 926 1036
1024 127 23 460 20 599 -6z"/>
</g>
</svg>
