<svg xmlns="http://www.w3.org/2000/svg" width="500" height="300" viewBox="0 0 500 300"><path fill="#B2FF61" d="M42.642 92.096c-.288-1.872-1.73-7.56-8.28-7.56-7.418 0-9.794 7.2-9.794 14.112s2.376 14.113 9.793 14.113c5.33 0 7.418-3.744 8.354-8.568h15.553c0 10.37-8.424 21.386-23.474 21.386-16.634 0-26.066-11.737-26.066-26.93 0-16.202 10.225-26.93 26.066-26.93 14.113.07 21.89 7.488 23.258 20.377H42.643zM98.153 124.354H84.4v-4.752h-.144c-2.664 3.744-6.48 5.688-12.17 5.688-6.696 0-12.816-4.104-12.816-12.673V86.983h14.257v19.585c0 4.32.504 7.345 4.68 7.345 2.45 0 5.69-1.224 5.69-7.2v-19.73h14.256v37.37zM119.463 86.983h7.633v8.785h-7.633V108.8c0 3.457.792 4.97 4.392 4.97 1.08 0 2.16-.073 3.24-.217v10.8c-2.88 0-6.12.433-9.144.433-6.047 0-12.744-.936-12.744-11.16V95.767H98.87v-8.785h6.336V75.606h14.257v11.377z"/><path fill="#FFF" d="M164.25 92.096c-.29-1.872-1.73-7.56-8.282-7.56-7.417 0-9.793 7.2-9.793 14.112s2.376 14.113 9.793 14.113c5.328 0 7.417-3.744 8.353-8.568h15.554c0 10.37-8.424 21.386-23.474 21.386-16.634 0-26.066-11.737-26.066-26.93 0-16.202 10.225-26.93 26.066-26.93 14.113.07 21.89 7.488 23.258 20.377h-15.41z"/><path fill="#FFF" d="M218.032 116.002c0 2.808.144 5.977 1.728 8.353h-14.545c-.36-1.008-.576-2.52-.504-3.528h-.144c-3.023 3.457-7.416 4.464-12.024 4.464-7.2 0-13.177-3.455-13.177-11.304 0-11.81 13.825-11.377 21.098-12.745 1.943-.36 3.888-.936 3.888-3.31 0-2.52-2.375-3.458-4.68-3.458-4.392 0-5.256 2.232-5.328 3.816h-13.25c.217-5.256 2.81-8.353 6.48-10.08 3.602-1.73 8.354-2.16 12.746-2.16 17.857 0 17.714 7.416 17.714 14.616v15.338zm-13.68-8.425c-1.73.864-3.673 1.368-5.617 1.8-3.168.72-4.824 1.512-4.824 4.033 0 1.728 1.873 3.456 4.465 3.456 3.24 0 5.76-1.944 5.977-5.833v-3.456zM220.188 86.983h13.68v5.977h.146c2.304-4.464 5.328-6.913 10.513-6.913 1.44 0 2.81.216 4.176.576v12.6c-1.44-.503-2.735-.935-5.616-.935-5.616 0-8.64 3.312-8.64 11.305v14.76h-14.258v-37.37zM271.092 86.983h7.633v8.785h-7.633V108.8c0 3.457.793 4.97 4.393 4.97 1.08 0 2.16-.073 3.24-.217v10.8c-2.88 0-6.12.433-9.145.433-6.05 0-12.745-.936-12.745-11.16V95.767h-6.337v-8.785h6.337V75.606h14.257v11.377zM292.403 108.873c.36 4.25 2.81 7.273 7.272 7.273 2.305 0 4.825-.864 5.977-2.665h13.32c-2.88 8.066-10.728 11.81-19.225 11.81-11.953 0-20.953-7.057-20.953-19.514 0-10.873 7.92-19.73 19.73-19.73 14.832 0 21.24 8.282 21.24 22.827h-27.36zm13.682-7.416c0-3.457-2.593-6.265-6.265-6.265-4.248 0-6.696 2.232-7.345 6.265h13.61zM321.707 72.942h14.257v51.413h-14.257V72.942zM342.037 75.357h-1.632v-1.494h5.06v1.494h-1.63v4.335h-1.798v-4.335zM346.118 73.864h2.556l.832 3.43h.017l.833-3.43h2.555v5.83h-1.697v-3.74h-.016l-1.013 3.74h-1.34l-1.01-3.74h-.018v3.74h-1.698v-5.83z"/></svg>